<svg xmlns="http://www.w3.org/2000/svg" width="902" height="536" viewBox="0 0 902 536">
<defs><marker id="arrowhead-868e96" markerWidth="10" markerHeight="7" refX="9" refY="3.5" orient="auto" markerUnits="strokeWidth"><polygon points="0 0, 10 3.5, 0 7" fill="#868e96" /></marker><marker id="arrowhead-343a40" markerWidth="10" markerHeight="7" refX="9" refY="3.5" orient="auto" markerUnits="strokeWidth"><polygon points="0 0, 10 3.5, 0 7" fill="#343a40" /></marker></defs>
<g transform="translate(22,35)">
<rect x="105" y="55" width="345" height="360" rx="10" fill="#f8f9fa" stroke="#868e96" stroke-width="1.5"  />
<rect x="530" y="55" width="310" height="360" rx="10" fill="#f0f4ff" stroke="#868e96" stroke-width="1.5"  />
<rect x="125" y="78" width="145" height="65" rx="8" fill="#e9ecef" stroke="#343a40" stroke-width="1.5"  />
<rect x="125" y="294" width="145" height="55" rx="8" fill="#ffe3e3" stroke="#343a40" stroke-width="1.5"  />
<rect x="320" y="91" width="80" height="38" rx="2" fill="#dee2e6" stroke="#343a40" stroke-width="1.5"  />
<rect x="320" y="303" width="80" height="38" rx="2" fill="#dee2e6" stroke="#343a40" stroke-width="1.5"  />
<rect x="330" y="168" width="60" height="28" rx="2" fill="#dee2e6" stroke="#868e96" stroke-width="1"  />
<rect x="330" y="230" width="60" height="28" rx="2" fill="#dee2e6" stroke="#868e96" stroke-width="1"  />
<rect x="560" y="75" width="155" height="70" rx="8" fill="#dbe4ff" stroke="#343a40" stroke-width="1.5"  />
<rect x="660" y="87" width="42" height="46" rx="2" fill="#e8d5f5" stroke="#343a40" stroke-width="1"  />
<rect x="595" y="200" width="100" height="50" rx="2" fill="#fff3bf" stroke="#343a40" stroke-width="1.5"  />
<rect x="560" y="287" width="155" height="70" rx="8" fill="#d3f9d8" stroke="#343a40" stroke-width="1.5"  />
<path d="M336,92 L336,128" fill="none" stroke="#868e96" stroke-width="1"    />
<path d="M352,92 L352,128" fill="none" stroke="#868e96" stroke-width="1"    />
<path d="M368,92 L368,128" fill="none" stroke="#868e96" stroke-width="1"    />
<path d="M384,92 L384,128" fill="none" stroke="#868e96" stroke-width="1"    />
<path d="M336,304 L336,340" fill="none" stroke="#868e96" stroke-width="1"    />
<path d="M352,304 L352,340" fill="none" stroke="#868e96" stroke-width="1"    />
<path d="M368,304 L368,340" fill="none" stroke="#868e96" stroke-width="1"    />
<path d="M384,304 L384,340" fill="none" stroke="#868e96" stroke-width="1"    />
<path d="M345,169 L345,195" fill="none" stroke="#adb5bd" stroke-width="1"    />
<path d="M360,169 L360,195" fill="none" stroke="#adb5bd" stroke-width="1"    />
<path d="M375,169 L375,195" fill="none" stroke="#adb5bd" stroke-width="1"    />
<path d="M345,231 L345,257" fill="none" stroke="#adb5bd" stroke-width="1"    />
<path d="M360,231 L360,257" fill="none" stroke="#adb5bd" stroke-width="1"    />
<path d="M375,231 L375,257" fill="none" stroke="#adb5bd" stroke-width="1"    />
<path d="M395,182 L325,182" fill="none" stroke="#868e96" stroke-width="1" stroke-dasharray="5 5" marker-end="url(#arrowhead-868e96)"  />
<path d="M395,244 L325,244" fill="none" stroke="#868e96" stroke-width="1" stroke-dasharray="5 5" marker-end="url(#arrowhead-868e96)"  />
<path d="M666,93 L696,127" fill="none" stroke="#868e96" stroke-width="1.5"    />
<path d="M666,127 L696,93" fill="none" stroke="#868e96" stroke-width="1.5"    />
<path d="M595,212.5 L695,212.5" fill="none" stroke="#868e96" stroke-width="1"    />
<path d="M595,225 L695,225" fill="none" stroke="#868e96" stroke-width="1"    />
<path d="M595,237.5 L695,237.5" fill="none" stroke="#868e96" stroke-width="1"    />
<path d="M270,110 L320,110" fill="none" stroke="#343a40" stroke-width="1.5"  marker-end="url(#arrowhead-343a40)"  />
<path d="M270,125 L290,125 L290,322 L320,322" fill="none" stroke="#343a40" stroke-width="1.5"  marker-end="url(#arrowhead-343a40)"  />
<path d="M400,110 L560,110" fill="none" stroke="#343a40" stroke-width="1.5"  marker-end="url(#arrowhead-343a40)"  />
<path d="M400,322 L560,322" fill="none" stroke="#343a40" stroke-width="1.5"  marker-end="url(#arrowhead-343a40)"  />
<path d="M645,145 L645,200" fill="none" stroke="#343a40" stroke-width="1.5"  marker-end="url(#arrowhead-343a40)"  />
<path d="M645,250 L645,287" fill="none" stroke="#343a40" stroke-width="1.5"  marker-end="url(#arrowhead-343a40)"  />
<path d="M30,110.5 L125,110.5" fill="none" stroke="#343a40" stroke-width="2"  marker-end="url(#arrowhead-343a40)"  />
<path d="M105,215 L30,215" fill="none" stroke="#343a40" stroke-width="2"  marker-end="url(#arrowhead-343a40)"  />
<path d="M30,321.5 L125,321.5" fill="none" stroke="#343a40" stroke-width="2"  marker-end="url(#arrowhead-343a40)"  />
<path d="M595,75 L595,35" fill="none" stroke="#343a40" stroke-width="2"  marker-end="url(#arrowhead-343a40)"  />
<path d="M690,35 L690,75" fill="none" stroke="#343a40" stroke-width="2"  marker-end="url(#arrowhead-343a40)"  />
<path d="M585,357 L585,440" fill="none" stroke="#343a40" stroke-width="2"  marker-end="url(#arrowhead-343a40)"  />
<path d="M637.5,440 L637.5,357" fill="none" stroke="#343a40" stroke-width="2"  marker-end="url(#arrowhead-343a40)"  />
<path d="M690,357 L690,440" fill="none" stroke="#343a40" stroke-width="2"  marker-end="url(#arrowhead-343a40)"  />
<text x="416" y="22" font-family="&apos;Helvetica Neue&apos;, Helvetica, Arial, sans-serif" font-size="20" fill="#1e1e1e" text-anchor="middle" dominant-baseline="auto"><tspan x="416" >iDMA Backend</tspan></text>
<text x="115" y="72.9" font-family="&apos;Helvetica Neue&apos;, Helvetica, Arial, sans-serif" font-size="14" fill="#343a40" text-anchor="start" dominant-baseline="auto"><tspan x="115" >Legalizer</tspan></text>
<text x="540" y="72.9" font-family="&apos;Helvetica Neue&apos;, Helvetica, Arial, sans-serif" font-size="14" fill="#343a40" text-anchor="start" dominant-baseline="auto"><tspan x="540" >Transport Layer</tspan></text>
<text x="197.5" y="104" font-family="&apos;Helvetica Neue&apos;, Helvetica, Arial, sans-serif" font-size="13" fill="#343a40" text-anchor="middle" dominant-baseline="auto"><tspan x="197.5" >Burst</tspan><tspan x="197.5" dy="17.55">Splitter</tspan></text>
<text x="197.5" y="323.77500000000003" font-family="&apos;Helvetica Neue&apos;, Helvetica, Arial, sans-serif" font-size="13" fill="#343a40" text-anchor="middle" dominant-baseline="auto"><tspan x="197.5" >Error FSM</tspan></text>
<text x="320" y="85.5" font-family="&apos;Helvetica Neue&apos;, Helvetica, Arial, sans-serif" font-size="10" fill="#343a40" text-anchor="start" dominant-baseline="auto"><tspan x="320" >tx</tspan></text>
<text x="320" y="353.5" font-family="&apos;Helvetica Neue&apos;, Helvetica, Arial, sans-serif" font-size="10" fill="#343a40" text-anchor="start" dominant-baseline="auto"><tspan x="320" >tx</tspan></text>
<text x="398" y="180.65" font-family="&apos;Helvetica Neue&apos;, Helvetica, Arial, sans-serif" font-size="9" fill="#868e96" text-anchor="start" dominant-baseline="auto"><tspan x="398" >retire</tspan></text>
<text x="398" y="242.65" font-family="&apos;Helvetica Neue&apos;, Helvetica, Arial, sans-serif" font-size="9" fill="#868e96" text-anchor="start" dominant-baseline="auto"><tspan x="398" >retire</tspan></text>
<text x="568" y="94.05" font-family="&apos;Helvetica Neue&apos;, Helvetica, Arial, sans-serif" font-size="13" fill="#343a40" text-anchor="start" dominant-baseline="auto"><tspan x="568" >Read</tspan><tspan x="568" dy="17.55">Module</tspan></text>
<text x="623.4" y="229.2" font-family="&apos;Helvetica Neue&apos;, Helvetica, Arial, sans-serif" font-size="12" fill="#343a40" text-anchor="start" dominant-baseline="auto"><tspan x="623.4" >Buffer</tspan></text>
<text x="568" y="306.05" font-family="&apos;Helvetica Neue&apos;, Helvetica, Arial, sans-serif" font-size="13" fill="#343a40" text-anchor="start" dominant-baseline="auto"><tspan x="568" >Write</tspan><tspan x="568" dy="17.55">Module</tspan></text>
<text x="30" y="102.7" font-family="&apos;Helvetica Neue&apos;, Helvetica, Arial, sans-serif" font-size="12" fill="#343a40" text-anchor="start" dominant-baseline="auto"><tspan x="30" >1D request</tspan></text>
<text x="35" y="207.2" font-family="&apos;Helvetica Neue&apos;, Helvetica, Arial, sans-serif" font-size="12" fill="#343a40" text-anchor="start" dominant-baseline="auto"><tspan x="35" >response</tspan></text>
<text x="18" y="313.7" font-family="&apos;Helvetica Neue&apos;, Helvetica, Arial, sans-serif" font-size="12" fill="#343a40" text-anchor="start" dominant-baseline="auto"><tspan x="18" >error handling</tspan></text>
<text x="587" y="28.049999999999997" font-family="&apos;Helvetica Neue&apos;, Helvetica, Arial, sans-serif" font-size="13" fill="#343a40" text-anchor="start" dominant-baseline="auto"><tspan x="587" >AR</tspan></text>
<text x="687" y="28.049999999999997" font-family="&apos;Helvetica Neue&apos;, Helvetica, Arial, sans-serif" font-size="13" fill="#343a40" text-anchor="start" dominant-baseline="auto"><tspan x="687" >R</tspan></text>
<text x="575" y="454.05" font-family="&apos;Helvetica Neue&apos;, Helvetica, Arial, sans-serif" font-size="13" fill="#343a40" text-anchor="start" dominant-baseline="auto"><tspan x="575" >AW</tspan></text>
<text x="634.5" y="454.05" font-family="&apos;Helvetica Neue&apos;, Helvetica, Arial, sans-serif" font-size="13" fill="#343a40" text-anchor="start" dominant-baseline="auto"><tspan x="634.5" >B</tspan></text>
<text x="685" y="454.05" font-family="&apos;Helvetica Neue&apos;, Helvetica, Arial, sans-serif" font-size="13" fill="#343a40" text-anchor="start" dominant-baseline="auto"><tspan x="685" >W</tspan></text>
</g>
</svg>